PathFileType	4	(X/Y/Z)	C:/Users/opensim2020/Desktop/walking_exp_matlab/subject03_walking05_straight_01.trc	
DataRate	CameraRate	NumFrames	NumMarkers	Units	OrigDataRate	OrigDataStartFrame	OrigNumFrames	
100.00	100.00	7	45	mm	100.00	727	298	
Frame#	Time	LFHD			RFHD			LBHD			RBHD			C7			T10			CLAV			STRN			RBAK			LSHO			LUPA			LELB			LFRM			LWRA			LWRB			LFIN			RSHO			RUPA			RELB			RFRM			RWRA			RWRB			RFIN			LASI			RASI			LPSI			RPSI			LTHI			LKNE			LTIB			LANK			LHEE			LTOE			RTHI			RKNE			RTIB			RANK			RHEE			RTOE			*39			*40			*41			*42			*43			*44			
		X1	Y1	Z1	X2	Y2	Z2	X3	Y3	Z3	X4	Y4	Z4	X5	Y5	Z5	X6	Y6	Z6	X7	Y7	Z7	X8	Y8	Z8	X9	Y9	Z9	X10	Y10	Z10	X11	Y11	Z11	X12	Y12	Z12	X13	Y13	Z13	X14	Y14	Z14	X15	Y15	Z15	X16	Y16	Z16	X17	Y17	Z17	X18	Y18	Z18	X19	Y19	Z19	X20	Y20	Z20	X21	Y21	Z21	X22	Y22	Z22	X23	Y23	Z23	X24	Y24	Z24	X25	Y25	Z25	X26	Y26	Z26	X27	Y27	Z27	X28	Y28	Z28	X29	Y29	Z29	X30	Y30	Z30	X31	Y31	Z31	X32	Y32	Z32	X33	Y33	Z33	X34	Y34	Z34	X35	Y35	Z35	X36	Y36	Z36	X37	Y37	Z37	X38	Y38	Z38	X39	Y39	Z39	X40	Y40	Z40	X41	Y41	Z41	X42	Y42	Z42	X43	Y43	Z43	X44	Y44	Z44	X45	Y45	Z45	

1	0.000	-1060.43506	-1272.77600	1591.80786	-928.99701	-1289.07581	1596.48987	-1071.61682	-1403.61597	1555.12122	-940.47601	-1414.78455	1559.49768	-1005.56195	-1446.95874	1401.16138	-1006.25525	-1515.94312	1094.95276	-1008.15985	-1333.74780	1312.21399	-1017.42853	-1309.25452	1142.04321	-906.51422	-1511.91650	1230.56055	-1163.27673	-1379.81323	1358.55469	-1227.96509	-1439.74109	1168.73413	-1246.80762	-1429.14954	1041.00549	-1251.04639	-1408.46484	912.64880	-1224.56372	-1384.80994	795.32806	-1269.31641	-1418.23767	800.03857	-1263.11682	-1399.22620	717.99609	-848.56757	-1369.64038	1336.94263	-779.50366	-1359.60706	1113.46313	-768.54791	-1336.79883	1003.23517	-772.68408	-1306.64722	869.80804	-813.24646	-1268.55078	779.82446	-767.99548	-1296.14917	769.84174	-782.36279	-1267.07593	702.01599	-1130.42957	-1374.77771	925.57086	-897.14490	-1375.60242	905.43646	-1084.76538	-1536.70569	953.62885	-934.25360	-1529.98914	958.71936	-1184.44189	-1349.73389	640.58002	-1145.92578	-1284.85889	476.44559	-1150.29688	-1300.08472	278.76669	-1111.21777	-1282.12366	69.77189	-1072.68860	-1319.40210	31.81207	-1083.25464	-1133.93091	45.48055	-869.96295	-1492.69495	624.98425	-911.06836	-1525.03198	450.66586	-915.02295	-1618.02222	280.86111	-970.56598	-1693.45349	76.93021	-1027.19397	-1735.23035	49.23538	-965.69269	-1555.69275	30.59114																		 
2	0.010	-1061.04236	-1266.82117	1590.82458	-929.78796	-1283.26270	1595.94141	-1072.31177	-1397.50330	1553.29443	-941.50641	-1407.88782	1557.91089	-1006.31744	-1440.02832	1400.15259	-1006.32098	-1509.79724	1094.08472	-1008.22266	-1326.69080	1311.14136	-1017.19580	-1302.73230	1140.51880	-906.76984	-1505.47925	1230.08142	-1163.80371	-1372.11365	1356.61475	-1228.56616	-1431.70557	1166.62634	-1246.36365	-1424.07935	1038.88611	-1250.83582	-1407.47717	909.77087	-1224.81226	-1387.03247	792.31787	-1269.82947	-1419.42786	797.86157	-1263.38049	-1405.22070	714.96472	-848.89758	-1362.90686	1335.98706	-779.53229	-1352.30408	1112.69775	-768.70972	-1328.81592	1002.58124	-773.16553	-1297.38635	869.48859	-814.14948	-1258.35474	780.09338	-768.91003	-1285.80530	769.68677	-783.49548	-1255.93909	702.37451	-1130.12500	-1369.09766	924.37689	-896.74023	-1369.52759	904.48376	-1083.64893	-1532.52820	953.12817	-934.01764	-1523.96741	957.36273	-1184.51611	-1343.21545	639.39301	-1144.50427	-1277.40601	476.08585	-1148.06323	-1288.60620	277.50055	-1110.56689	-1263.00159	69.86524	-1072.23340	-1300.09119	31.47627	-1082.65112	-1114.71545	47.74021	-869.37531	-1487.09729	624.22290	-910.13196	-1520.34619	450.20956	-914.32843	-1614.85266	280.95313	-969.93671	-1692.91162	77.77151	-1026.18433	-1735.40930	50.95350	-965.62250	-1555.53296	30.54066																		 
3	0.020	-1062.28235	-1260.96497	1590.19006	-930.65778	-1277.20581	1595.47607	-1073.04883	-1391.17542	1551.57214	-942.24579	-1401.68506	1556.52710	-1007.12085	-1432.95435	1399.01880	-1006.48987	-1503.42969	1093.28259	-1008.53314	-1319.64551	1309.62256	-1016.89514	-1296.19971	1139.26367	-907.22699	-1498.93408	1229.57837	-1164.33997	-1364.17664	1354.74097	-1229.17651	-1423.43286	1164.58472	-1246.25220	-1418.98267	1037.12183	-1250.49500	-1406.19629	907.39569	-1224.77576	-1389.87463	789.07837	-1269.70203	-1422.98926	795.99194	-1263.48572	-1410.99780	712.51270	-849.30890	-1356.00684	1335.02075	-779.62024	-1344.98914	1111.97217	-768.87244	-1320.82947	1002.00812	-773.63300	-1288.25830	869.24091	-815.22223	-1248.20532	780.46613	-769.78900	-1275.67517	769.71313	-784.61920	-1244.85034	702.79779	-1130.12524	-1361.80542	923.44769	-896.36646	-1362.99976	903.62042	-1083.67493	-1525.68091	951.62354	-933.88733	-1517.62976	956.02429	-1184.92261	-1336.65649	637.94977	-1143.20605	-1270.06873	475.64532	-1147.23083	-1276.43018	277.17010	-1110.19080	-1245.78711	69.63158	-1071.79126	-1281.29663	31.33488	-1082.11853	-1096.33728	50.02716	-868.74811	-1481.60083	623.58881	-909.31311	-1515.54883	449.65015	-913.75140	-1611.73413	281.15305	-969.24768	-1692.36255	78.59924	-1024.94836	-1735.78650	52.84910	-965.49237	-1555.36621	30.47663																		 
4	0.030	-1063.59814	-1255.08191	1589.71460	-931.51978	-1271.12769	1594.96069	-1073.86792	-1384.64441	1549.94531	-942.80176	-1396.05005	1555.21118	-1007.97986	-1425.46204	1398.04431	-1006.76587	-1496.84985	1092.53723	-1009.76416	-1313.06946	1308.17737	-1016.83514	-1289.49768	1137.89795	-907.87280	-1492.31030	1229.14160	-1164.91394	-1355.92395	1352.93445	-1229.82458	-1414.84412	1162.61035	-1246.15723	-1413.55505	1035.53430	-1250.19275	-1404.54358	905.17102	-1225.46216	-1390.84558	786.79309	-1269.85693	-1424.91858	794.53485	-1263.55664	-1416.18762	710.57733	-849.74170	-1349.06995	1334.17883	-779.86200	-1337.59302	1111.34766	-769.16870	-1312.85339	1001.49133	-774.47559	-1278.95007	869.04895	-816.20123	-1238.30298	780.90253	-770.91034	-1265.33496	769.55652	-785.96356	-1233.80688	703.32397	-1129.58313	-1355.06665	922.23645	-895.99786	-1356.47083	902.79187	-1083.64441	-1518.85095	950.37317	-933.83325	-1511.21655	954.86365	-1185.54565	-1330.18274	636.29889	-1142.80359	-1262.03906	475.58655	-1147.20972	-1264.18896	277.19366	-1109.95813	-1229.31177	69.77799	-1073.40833	-1262.22852	29.82515	-1081.96484	-1078.46838	52.36393	-868.20850	-1476.08203	623.06036	-908.39154	-1510.69482	449.12582	-913.14807	-1608.41980	281.41925	-968.50348	-1691.60339	80.01727	-1024.18835	-1735.47778	54.83365	-965.34021	-1555.13464	30.36625																		 
5	0.040	-1063.91382	-1248.26917	1588.79834	-932.40118	-1264.86060	1594.54004	-1074.72668	-1377.96338	1548.43481	-943.72845	-1389.43225	1553.91174	-1009.01117	-1417.94446	1397.09692	-1007.02393	-1489.96338	1091.84302	-1008.74652	-1304.45752	1307.45935	-1016.62524	-1282.50598	1136.57605	-908.68365	-1485.54736	1228.73694	-1165.55920	-1347.40564	1351.23792	-1230.54358	-1405.98987	1160.74609	-1245.82813	-1407.72827	1033.94641	-1250.14368	-1402.67920	903.37457	-1224.53906	-1394.88135	783.96185	-1270.02295	-1426.78687	793.34650	-1263.43665	-1421.36267	709.11670	-850.08984	-1342.16699	1333.54529	-780.05536	-1330.29639	1110.77612	-769.48102	-1304.96814	1001.09442	-775.05377	-1269.98804	868.95117	-817.28088	-1228.59399	781.35889	-771.99237	-1255.33020	769.62659	-787.16949	-1222.93201	703.83978	-1128.87061	-1347.92090	921.03833	-895.60297	-1349.90784	902.01202	-1083.90210	-1511.39880	949.33472	-934.34357	-1504.21521	953.27673	-1186.21558	-1323.71130	634.42462	-1141.79102	-1255.14502	474.45636	-1145.81213	-1253.43604	276.36185	-1109.49585	-1212.44702	70.26287	-1071.18628	-1245.88403	31.35476	-1081.83191	-1061.29639	54.77300	-867.61072	-1470.56213	622.66541	-907.43323	-1505.67773	448.74188	-912.36414	-1605.15369	281.90302	-967.99298	-1690.93311	81.32590	-1023.66748	-1734.86536	56.94659	-965.42194	-1554.99219	30.14650																		 
6	0.050	-1064.10901	-1241.19226	1587.97754	-933.30914	-1258.43579	1594.18811	-1075.72388	-1371.07629	1547.03333	-944.94269	-1381.97998	1552.61438	-1009.95898	-1409.98572	1396.10791	-1007.25726	-1482.81274	1091.23743	-1008.74506	-1296.59290	1306.51392	-1016.35632	-1275.21692	1135.43689	-909.60291	-1478.62415	1228.40393	-1166.15601	-1338.63037	1349.59265	-1231.21460	-1396.87891	1158.93311	-1245.36621	-1401.74951	1032.49402	-1249.46863	-1400.35034	901.69061	-1224.19482	-1397.31860	781.84924	-1270.19873	-1427.50439	792.68439	-1263.50171	-1425.33337	708.25360	-850.68787	-1334.80981	1332.83240	-780.35046	-1322.89624	1110.31384	-769.86243	-1297.04871	1000.79108	-775.84662	-1260.95618	868.98163	-818.43744	-1218.94141	781.92365	-773.02411	-1245.66138	769.94348	-788.35791	-1212.54297	704.46497	-1128.79565	-1339.72290	920.12628	-895.24890	-1343.11511	901.38477	-1084.03296	-1504.14417	948.48322	-934.27905	-1498.01550	952.71057	-1186.92590	-1317.11340	632.51178	-1139.96497	-1249.25964	472.28519	-1145.17004	-1242.69897	275.90161	-1109.50146	-1196.82507	70.62088	-1072.81970	-1228.31689	30.19581	-1081.93103	-1044.86194	56.90956	-866.73682	-1465.02588	622.42377	-906.53735	-1500.30432	448.35159	-911.68359	-1601.59888	282.41428	-967.33551	-1690.12610	83.00146	-1022.75201	-1734.37085	59.26554	-965.20862	-1554.75378	30.03769																		 
7	0.060	-1065.01428	-1234.34155	1587.57324	-934.26917	-1251.83215	1593.96570	-1076.69727	-1363.96899	1545.74548	-945.74603	-1375.78259	1551.59412	-1010.99274	-1401.98914	1395.37036	-1007.49573	-1475.42090	1090.76782	-1009.46637	-1288.90137	1305.41052	-1016.10339	-1267.61755	1134.45081	-910.57635	-1471.49060	1228.15710	-1166.81250	-1329.67188	1348.18311	-1231.94519	-1387.58459	1157.35583	-1245.04517	-1395.62061	1031.13928	-1249.26782	-1397.77515	900.67175	-1224.16418	-1397.96899	780.76727	-1270.42786	-1427.65454	792.42059	-1263.67871	-1428.20117	708.28302	-851.04303	-1327.62366	1332.53833	-780.61548	-1315.60510	1109.98975	-770.27887	-1289.16309	1000.59674	-776.53516	-1252.18286	869.12024	-819.62604	-1209.59473	782.50818	-774.24939	-1235.87207	769.99854	-789.73077	-1202.10291	705.29553	-1128.44751	-1331.71753	919.15515	-894.75909	-1336.33618	900.79602	-1084.59485	-1496.18884	947.50983	-934.64539	-1491.11560	952.02271	-1187.57251	-1310.51660	630.50269	-1139.81897	-1241.58838	471.72388	-1144.52991	-1232.39551	275.46042	-1109.46521	-1183.54382	71.20810	-1071.46008	-1213.43750	31.45463	-1081.90527	-1029.21631	58.84726	-866.08209	-1459.08765	622.21417	-905.62561	-1494.65881	448.12573	-910.94110	-1597.92932	283.18024	-966.75067	-1689.26013	85.07610	-1022.04578	-1733.77356	62.35392	-964.97595	-1554.52930	30.00460																		 
